<?xml version="1.0" encoding="utf-8"?><svg viewBox="0 0 2000 2000" xmlns="http://www.w3.org/2000/svg" xmlns:xlink="http://www.w3.org/1999/xlink"><style>:root>svg{display:none}:root>svg:target{display:block}</style><svg viewBox="0 0 266.895 266.895" id="f" xmlns="http://www.w3.org/2000/svg"><path d="M252.164 266.895c8.134 0 14.729-6.596 14.729-14.73V14.73c0-8.137-6.596-14.73-14.729-14.73H14.73C6.593 0 0 6.594 0 14.73v237.434c0 8.135 6.593 14.73 14.73 14.73h237.434z" fill="#485a96"/><path d="M184.152 266.895V163.539h34.692l5.194-40.28h-39.887V97.542c0-11.662 3.238-19.609 19.962-19.609l21.329-.01V41.897c-3.689-.49-16.351-1.587-31.08-1.587-30.753 0-51.807 18.771-51.807 53.244v29.705h-34.781v40.28h34.781v103.355h41.597z" fill="#fff"/></svg><svg viewBox="0 0 512 512" id="home" xmlns="http://www.w3.org/2000/svg"><style>.bst0{fill:#ffffe5}</style><path class="bst0" d="M512 296l-96-96V56h-64v80l-96-96L0 296v16h64v160h160v-96h64v96h160V312h64v-16z" id="bCapa_1"/></svg><svg viewBox="0 0 3364.7 3364.7" id="insta" xmlns="http://www.w3.org/2000/svg"><defs><radialGradient id="ca" cx="217.76" cy="3290.99" r="4271.92" gradientUnits="userSpaceOnUse"><stop offset=".09" stop-color="#fa8f21"/><stop offset=".78" stop-color="#d82d7e"/></radialGradient><radialGradient id="cb" cx="2330.61" cy="3182.95" r="3759.33" gradientUnits="userSpaceOnUse"><stop offset=".64" stop-color="#8c3aaa" stop-opacity="0"/><stop offset="1" stop-color="#8c3aaa"/></radialGradient></defs><path d="M853.2 3352.8c-200.1-9.1-308.8-42.4-381.1-70.6-95.8-37.3-164.1-81.7-236-153.5s-116.4-140.1-153.5-235.9c-28.2-72.3-61.5-181-70.6-381.1-10-216.3-12-281.2-12-829.2s2.2-612.8 11.9-829.3C21 653.1 54.5 544.6 82.5 472.1 119.8 376.3 164.3 308 236 236c71.8-71.8 140.1-116.4 236-153.5C544.3 54.3 653 21 853.1 11.9 1069.5 2 1134.5 0 1682.3 0c548 0 612.8 2.2 829.3 11.9 200.1 9.1 308.6 42.6 381.1 70.6 95.8 37.1 164.1 81.7 236 153.5s116.2 140.2 153.5 236c28.2 72.3 61.5 181 70.6 381.1 9.9 216.5 11.9 281.3 11.9 829.3 0 547.8-2 612.8-11.9 829.3-9.1 200.1-42.6 308.8-70.6 381.1-37.3 95.8-81.7 164.1-153.5 235.9s-140.2 116.2-236 153.5c-72.3 28.2-181 61.5-381.1 70.6-216.3 9.9-281.3 11.9-829.3 11.9-547.8 0-612.8-1.9-829.1-11.9" fill="url(#ca)"/><path d="M853.2 3352.8c-200.1-9.1-308.8-42.4-381.1-70.6-95.8-37.3-164.1-81.7-236-153.5s-116.4-140.1-153.5-235.9c-28.2-72.3-61.5-181-70.6-381.1-10-216.3-12-281.2-12-829.2s2.2-612.8 11.9-829.3C21 653.1 54.5 544.6 82.5 472.1 119.8 376.3 164.3 308 236 236c71.8-71.8 140.1-116.4 236-153.5C544.3 54.3 653 21 853.1 11.9 1069.5 2 1134.5 0 1682.3 0c548 0 612.8 2.2 829.3 11.9 200.1 9.1 308.6 42.6 381.1 70.6 95.8 37.1 164.1 81.7 236 153.5s116.2 140.2 153.5 236c28.2 72.3 61.5 181 70.6 381.1 9.9 216.5 11.9 281.3 11.9 829.3 0 547.8-2 612.8-11.9 829.3-9.1 200.1-42.6 308.8-70.6 381.1-37.3 95.8-81.7 164.1-153.5 235.9s-140.2 116.2-236 153.5c-72.3 28.2-181 61.5-381.1 70.6-216.3 9.9-281.3 11.9-829.3 11.9-547.8 0-612.8-1.9-829.1-11.9" fill="url(#cb)"/><path d="M1269.25 1689.52c0-230.11 186.49-416.7 416.6-416.7s416.7 186.59 416.7 416.7-186.59 416.7-416.7 416.7-416.6-186.59-416.6-416.7m-225.26 0c0 354.5 287.36 641.86 641.86 641.86s641.86-287.36 641.86-641.86-287.36-641.86-641.86-641.86S1044 1335 1044 1689.52m1159.13-667.31a150 150 0 10150.06-149.94h-.06a150.07 150.07 0 00-150 149.94M1180.85 2707c-121.87-5.55-188.11-25.85-232.13-43-58.36-22.72-100-49.78-143.78-93.5s-70.88-85.32-93.5-143.68c-17.16-44-37.46-110.26-43-232.13-6.06-131.76-7.27-171.34-7.27-505.15s1.31-373.28 7.27-505.15c5.55-121.87 26-188 43-232.13 22.72-58.36 49.78-100 93.5-143.78s85.32-70.88 143.78-93.5c44-17.16 110.26-37.46 232.13-43 131.76-6.06 171.34-7.27 505-7.27S2059.13 666 2191 672c121.87 5.55 188 26 232.13 43 58.36 22.62 100 49.78 143.78 93.5s70.78 85.42 93.5 143.78c17.16 44 37.46 110.26 43 232.13 6.06 131.87 7.27 171.34 7.27 505.15s-1.21 373.28-7.27 505.15c-5.55 121.87-25.95 188.11-43 232.13-22.72 58.36-49.78 100-93.5 143.68s-85.42 70.78-143.78 93.5c-44 17.16-110.26 37.46-232.13 43-131.76 6.06-171.34 7.27-505.15 7.27s-373.28-1.21-505-7.27M1170.5 447.09c-133.07 6.06-224 27.16-303.41 58.06-82.19 31.91-151.86 74.72-221.43 144.18S533.39 788.47 501.48 870.76c-30.9 79.46-52 170.34-58.06 303.41-6.16 133.28-7.57 175.89-7.57 515.35s1.41 382.07 7.57 515.35c6.06 133.08 27.16 223.95 58.06 303.41 31.91 82.19 74.62 152 144.18 221.43s139.14 112.18 221.43 144.18c79.56 30.9 170.34 52 303.41 58.06 133.35 6.06 175.89 7.57 515.35 7.57s382.07-1.41 515.35-7.57c133.08-6.06 223.95-27.16 303.41-58.06 82.19-32 151.86-74.72 221.43-144.18s112.18-139.24 144.18-221.43c30.9-79.46 52.1-170.34 58.06-303.41 6.06-133.38 7.47-175.89 7.47-515.35s-1.41-382.07-7.47-515.35c-6.06-133.08-27.16-224-58.06-303.41-32-82.19-74.72-151.86-144.18-221.43s-139.24-112.27-221.33-144.18c-79.56-30.9-170.44-52.1-303.41-58.06-133.3-6.09-175.89-7.57-515.3-7.57s-382.1 1.41-515.45 7.57" fill="#fff"/></svg><svg viewBox="85 90 175 85" id="line-green" xmlns="http://www.w3.org/2000/svg"><style>.dst0{fill:none;stroke:#cefdd1;stroke-width:7;stroke-miterlimit:10}</style><g id="dСлой_2"><path class="dst0" d="M103 99c16.4 0 16.4 16 32.8 16s16.4-16 32.8-16 16.4 16 32.8 16 16.4-16 32.8-16 16.4 16 32.8 16M102 123.5c16.4 0 16.4 16 32.8 16s16.4-16 32.8-16 16.4 16 32.8 16 16.4-16 32.8-16 16.4 16 32.8 16M103 147.5c16.4 0 16.4 16 32.8 16s16.4-16 32.8-16 16.4 16 32.8 16 16.4-16 32.8-16 16.4 16 32.8 16"/></g></svg><svg viewBox="85 90 175 85" id="line-pink" xmlns="http://www.w3.org/2000/svg"><style>.est0{fill:none;stroke:#fce1ec;stroke-width:7;stroke-miterlimit:10}</style><g id="eСлой_2"><path class="est0" d="M103 99c16.4 0 16.4 16 32.8 16s16.4-16 32.8-16 16.4 16 32.8 16 16.4-16 32.8-16 16.4 16 32.8 16M102 123.5c16.4 0 16.4 16 32.8 16s16.4-16 32.8-16 16.4 16 32.8 16 16.4-16 32.8-16 16.4 16 32.8 16M103 147.5c16.4 0 16.4 16 32.8 16s16.4-16 32.8-16 16.4 16 32.8 16 16.4-16 32.8-16 16.4 16 32.8 16"/></g></svg><svg viewBox="85 90 175 85" id="line-purple" xmlns="http://www.w3.org/2000/svg"><style>.fst0{fill:none;stroke:#cfb8f6;stroke-width:7;stroke-miterlimit:10}</style><g id="fСлой_2"><path class="fst0" d="M103 99c16.4 0 16.4 16 32.8 16s16.4-16 32.8-16 16.4 16 32.8 16 16.4-16 32.8-16 16.4 16 32.8 16M102 123.5c16.4 0 16.4 16 32.8 16s16.4-16 32.8-16 16.4 16 32.8 16 16.4-16 32.8-16 16.4 16 32.8 16M103 147.5c16.4 0 16.4 16 32.8 16s16.4-16 32.8-16 16.4 16 32.8 16 16.4-16 32.8-16 16.4 16 32.8 16"/></g></svg><svg viewBox="0 0 14 14" id="mail" xmlns="http://www.w3.org/2000/svg"><style>.gst0{fill:#ffffe5}</style><g id="gCapa_1"><path class="gst0" d="M7 9L5.3 7.5l-5 4.2c.2.2.4.3.7.3h12c.3 0 .5-.1.7-.3l-5-4.2L7 9z"/><path class="gst0" d="M13.7 2.3c-.2-.2-.4-.3-.7-.3H1c-.3 0-.5.1-.7.3L7 8l6.7-5.7zM0 2.9v8.3l4.8-4.1zM9.2 7.1l4.8 4.1V2.9z"/></g></svg><svg version="1.1" id="phone" x="0" y="0" viewBox="0 0 578.1 578.1" xml:space="preserve" xmlns="http://www.w3.org/2000/svg"><style>.hst0{fill:#ffffe5}</style><path class="hst0" d="M577.8 456.1c1.2 9.4-1.6 17.5-8.6 24.5l-81.4 80.8c-3.7 4.1-8.5 7.6-14.4 10.4-5.9 2.9-11.7 4.7-17.4 5.5-.4 0-1.6.1-3.7.3-2 .2-4.7.3-8 .3-7.8 0-20.3-1.3-37.6-4s-38.6-9.2-63.6-19.6c-25.1-10.4-53.6-26-85.4-46.8-31.8-20.8-65.7-49.4-101.6-85.7-28.6-28.2-52.2-55.1-71-80.8-18.8-25.7-33.9-49.5-45.3-71.3-11.4-21.8-20-41.6-25.7-59.4s-9.6-33-11.6-45.9-2.9-22.9-2.4-30.3c.4-7.3.6-11.4.6-12.2.8-5.7 2.7-11.5 5.5-17.4s6.3-10.7 10.4-14.4L98 8.8c5.7-5.7 12.2-8.6 19.6-8.6 5.3 0 10 1.5 14.1 4.6s7.5 6.8 10.4 11.3l65.5 124.2c3.7 6.5 4.7 13.7 3.1 21.4s-5.1 14.3-10.4 19.6l-30 30c-.8.8-1.5 2.1-2.1 4s-.9 3.4-.9 4.6c1.6 8.6 5.3 18.4 11 29.4 4.9 9.8 12.4 21.7 22.6 35.8s24.7 30.3 43.5 48.7c18.4 18.8 34.7 33.4 49 43.8 14.3 10.4 26.2 18.1 35.8 22.9s16.9 7.9 22 8.9l7.6 1.5c.8 0 2.1-.3 4-.9 1.8-.6 3.2-1.3 4-2.1l34.9-35.5c7.3-6.5 15.9-9.8 25.7-9.8 6.9 0 12.4 1.2 16.5 3.7h.6l118.1 69.8c8.5 5.1 13.6 11.9 15.2 20z"/></svg><svg viewBox="0 0 512 512" id="viber" xmlns="http://www.w3.org/2000/svg"><rect height="512" rx="64" ry="64" width="512" fill="#7b519d"/><g fill="#fff" fill-rule="evenodd"><path d="M421.915 345.457c-12.198-9.82-25.233-18.634-38.064-27.638-25.59-17.973-48.996-19.37-68.091 9.546-10.723 16.234-25.734 16.945-41.43 9.823-43.27-19.62-76.683-49.85-96.255-93.83-8.658-19.458-8.544-36.903 11.713-50.665 10.725-7.278 21.53-15.89 20.666-31.793-1.128-20.736-51.475-90.033-71.357-97.347-8.227-3.027-16.42-2.83-24.79-.017-46.62 15.678-65.93 54.019-47.437 99.417 55.17 135.442 152.26 229.732 285.91 287.282 7.62 3.277 16.085 4.587 20.371 5.763 30.428.306 66.073-29.01 76.367-58.104 9.911-27.99-11.035-39.1-27.603-52.437zM272.06 77.439c97.707 15.025 142.768 61.485 155.21 159.895 1.154 9.09-2.232 22.768 10.737 23.02 13.554.259 10.288-13.217 10.402-22.316 1.146-92.684-79.669-178.606-173.524-181.774-7.081 1.019-21.733-4.883-22.647 10.988-.609 10.7 11.727 8.942 19.822 10.187z"/><path d="M291.172 104.422c-9.398-1.132-21.805-5.56-24.001 7.48-2.293 13.687 11.535 12.297 20.42 14.286 60.346 13.487 81.358 35.451 91.294 95.311 1.451 8.727-1.432 22.31 13.399 20.059 10.991-1.674 7.021-13.317 7.94-20.118.487-57.47-48.758-109.778-109.052-117.018z"/><path d="M296.713 151.416c-6.273.155-12.43.834-14.736 7.538-3.463 10.02 3.822 12.409 11.237 13.6 24.755 3.974 37.783 18.571 40.256 43.257.668 6.7 4.92 12.129 11.392 11.365 8.969-1.07 9.78-9.053 9.505-16.634.443-27.734-30.904-59.79-57.654-59.126z"/></g></svg><svg version="1.1" id="wifi" x="0" y="0" viewBox="0 0 32 32" xml:space="preserve" xmlns="http://www.w3.org/2000/svg"><style>.jst0{fill:#ffffe5}</style><g id="jrss"><circle class="jst0" cx="4" cy="28" r="4"/><path class="jst0" d="M6 20c3.3 0 6 2.7 6 6h4c0-5.5-4.5-10-10-10v4z"/><path class="jst0" d="M6 12c7.7 0 14 6.3 14 14h4c0-9.9-8.1-18-18-18v4z"/><path class="jst0" d="M6 4c12.1 0 22 9.9 22 22h4C32 11.7 20.3 0 6 0v4z"/></g></svg></svg>